<svg xmlns="http://www.w3.org/2000/svg" height="20" viewBox="0 -960 960 960" width="20"><path d="M222.958-172.078q-24.357 0-42.272-17.916-17.916-17.916-17.916-42.272v-496.276q0-24.356 17.916-42.272 17.915-17.915 41.986-17.915h299.03v186.614h95.105v71.105h162.614v299.029q0 24.071-17.916 41.987-17.915 17.916-42.272 17.916H222.958Zm68.197-128.346h362.958L532.614-462.153l-98.692 127.73-60.383-75.076-82.384 109.075Zm386.923-315.769v-71.193h-71.193v-47.96h71.193v-71.192h47.96v71.192h71.192v47.96h-71.192v71.193h-47.96Z"/></svg>