<svg xmlns="http://www.w3.org/2000/svg" height="20" viewBox="0 -960 960 960" width="20"><path d="m179.77-166.615-14.499-7.807q-27.885-11.885-38.231-39.481-10.346-27.596 2.461-54.904l50.269-107.421v209.613Zm164.193 63.461q-30.692 0-52.942-20.25t-22.25-50.942v-237.536l115.345 309.536q-.5.384-.404-.058.096-.442-.404-.75h-39.345Zm175.152-23.578q-18.307 7.808-36.633-.769-18.327-8.577-26.134-28.269L287.771-618.308q-7.808-18.807 1.461-36.941 9.269-18.135 27.576-24.827L606.77-785.46q18.307-7.808 35.749 1.269 17.442 9.077 25.249 27.768l169.577 463.77q7.808 19.691-.634 37.518-8.442 17.826-28.634 26.018L519.115-126.732ZM449.154-552q14 0 23.942-9.942 9.943-9.943 9.943-24.135 0-14-9.943-23.942-9.942-9.943-23.942-9.943-14.192 0-24.135 9.943-9.942 9.942-9.942 23.942 0 14.192 9.942 24.135Q434.962-552 449.154-552Z"/></svg>